<svg width="40" height="40" viewBox="0 0 40 40" fill="none" xmlns="http://www.w3.org/2000/svg">
<path d="M29.9997 18.3333V9.99999C29.9997 9.11593 29.6485 8.26809 29.0234 7.64297C28.3982 7.01785 27.5504 6.66666 26.6663 6.66666C25.7823 6.66666 24.9344 7.01785 24.3093 7.64297C23.6842 8.26809 23.333 9.11593 23.333 9.99999" stroke="#51A2FF" stroke-width="3.33333" stroke-linecap="round" stroke-linejoin="round"/>
<path d="M23.3337 16.6667V6.66668C23.3337 5.78262 22.9825 4.93478 22.3573 4.30965C21.7322 3.68453 20.8844 3.33334 20.0003 3.33334C19.1163 3.33334 18.2684 3.68453 17.6433 4.30965C17.0182 4.93478 16.667 5.78262 16.667 6.66668V10" stroke="#51A2FF" stroke-width="3.33333" stroke-linecap="round" stroke-linejoin="round"/>
<path d="M16.6667 17.5V9.99999C16.6667 9.11593 16.3155 8.26809 15.6904 7.64297C15.0652 7.01785 14.2174 6.66666 13.3333 6.66666C12.4493 6.66666 11.6014 7.01785 10.9763 7.64297C10.3512 8.26809 10 9.11593 10 9.99999V23.3333" stroke="#51A2FF" stroke-width="3.33333" stroke-linecap="round" stroke-linejoin="round"/>
<path d="M29.9998 13.3333C29.9998 12.4493 30.351 11.6014 30.9762 10.9763C31.6013 10.3512 32.4491 10 33.3332 10C34.2172 10 35.0651 10.3512 35.6902 10.9763C36.3153 11.6014 36.6665 12.4493 36.6665 13.3333V23.3333C36.6665 26.8696 35.2618 30.2609 32.7613 32.7614C30.2608 35.2619 26.8694 36.6667 23.3332 36.6667H19.9998C15.3332 36.6667 12.4998 35.2333 10.0165 32.7667L4.01651 26.7667C3.44307 26.1316 3.13582 25.3003 3.15839 24.4449C3.18095 23.5895 3.53159 22.7756 4.13771 22.1716C4.74384 21.5676 5.55902 21.2199 6.41447 21.2003C7.26992 21.1808 8.10012 21.491 8.73318 22.0667L11.6665 25" stroke="#51A2FF" stroke-width="3.33333" stroke-linecap="round" stroke-linejoin="round"/>
</svg>
