<svg width="48" height="48" viewBox="0 0 48 48" fill="none" xmlns="http://www.w3.org/2000/svg">
<path d="M20 14V35.8" stroke="#6A7282" stroke-width="4" stroke-linecap="round" stroke-linejoin="round"/>
<path d="M28 12.2V34" stroke="#6A7282" stroke-width="4" stroke-linecap="round" stroke-linejoin="round"/>
<path d="M32 14V6C32.0001 5.6045 32.1174 5.2179 32.3372 4.88908C32.557 4.56026 32.8693 4.30399 33.2347 4.15265C33.6001 4.00131 34.0022 3.9617 34.3901 4.03883C34.778 4.11597 35.1343 4.30638 35.414 4.586C35.9675 5.14744 36.646 5.57001 37.394 5.81923C38.142 6.06845 38.9383 6.13724 39.718 6.02C40.0252 5.97625 40.3385 6.00459 40.6328 6.1028C40.9272 6.201 41.1947 6.36636 41.4142 6.58581C41.6336 6.80526 41.799 7.07276 41.8972 7.36715C41.9954 7.66155 42.0238 7.97476 41.98 8.282C41.8628 9.06166 41.9316 9.858 42.1808 10.606C42.43 11.354 42.8526 12.0325 43.414 12.586C43.6936 12.8657 43.884 13.222 43.9612 13.6099C44.0383 13.9978 43.9987 14.3999 43.8474 14.7653C43.696 15.1307 43.4397 15.443 43.1109 15.6628C42.7821 15.8826 42.3955 15.9999 42 16H34" stroke="#6A7282" stroke-width="4" stroke-linecap="round" stroke-linejoin="round"/>
<path d="M33.0721 14.93C32.1435 14.0011 31.041 13.2643 29.8276 12.7616C28.6141 12.2589 27.3135 12.0001 26.0001 12.0001C24.6867 12.0001 23.3861 12.2589 22.1727 12.7616C20.9592 13.2643 19.8567 14.0011 18.9281 14.93L14.9281 18.93C13.0534 20.8053 12.0002 23.3483 12.0002 26C12.0002 28.6516 13.0534 31.1947 14.9281 33.07C15.8567 33.9989 16.9592 34.7357 18.1727 35.2384C19.3861 35.7411 20.6867 35.9998 22.0001 35.9998C23.3135 35.9998 24.6141 35.7411 25.8276 35.2384C27.041 34.7357 28.1435 33.9989 29.0721 33.07L33.0721 29.07C34.9468 27.1947 36 24.6516 36 22C36 19.3483 34.9468 16.8053 33.0721 14.93Z" stroke="#6A7282" stroke-width="4" stroke-linecap="round" stroke-linejoin="round"/>
<path d="M16.0001 34V42C16 42.3955 15.8826 42.7821 15.6629 43.1109C15.4431 43.4397 15.1308 43.696 14.7654 43.8474C14.4 43.9987 13.9979 44.0383 13.61 43.9612C13.2221 43.884 12.8658 43.6936 12.5861 43.414C12.0325 42.8526 11.3541 42.43 10.6061 42.1808C9.85806 41.9316 9.06172 41.8628 8.28206 41.98C7.97482 42.0238 7.66161 41.9954 7.36721 41.8972C7.07282 41.799 6.80532 41.6336 6.58587 41.4142C6.36643 41.1947 6.20106 40.9272 6.10286 40.6328C6.00465 40.3385 5.97631 40.0252 6.02006 39.718C6.1373 38.9383 6.06851 38.142 5.81929 37.394C5.57007 36.646 5.1475 35.9675 4.58606 35.414C4.30644 35.1343 4.11603 34.778 4.0389 34.3901C3.96176 34.0022 4.00137 33.6001 4.15271 33.2347C4.30405 32.8693 4.56033 32.557 4.88915 32.3372C5.21796 32.1174 5.60456 32.0001 6.00006 32H14.0001" stroke="#6A7282" stroke-width="4" stroke-linecap="round" stroke-linejoin="round"/>
</svg>
