<svg width="48" height="48" viewBox="0 0 48 48" fill="none" xmlns="http://www.w3.org/2000/svg">
<path d="M38 28C40.98 25.08 44 21.58 44 17C44 14.0826 42.8411 11.2847 40.7782 9.22183C38.7153 7.15893 35.9174 6 33 6C29.48 6 27 7 24 10C21 7 18.52 6 15 6C12.0826 6 9.28473 7.15893 7.22183 9.22183C5.15893 11.2847 4 14.0826 4 17C4 21.6 7 25.1 10 28L24 42L38 28Z" stroke="#6A7282" stroke-width="4" stroke-linecap="round" stroke-linejoin="round"/>
<path d="M6.43994 24H18.9999L19.9999 22L23.9999 31L27.9999 17L30.9999 24H41.5399" stroke="#6A7282" stroke-width="4" stroke-linecap="round" stroke-linejoin="round"/>
</svg>
