<svg width="48" height="48" viewBox="0 0 48 48" fill="none" xmlns="http://www.w3.org/2000/svg">
<path d="M44 28C44 32.2435 42.3143 36.3131 39.3137 39.3137C36.3131 42.3143 32.2435 44 28 44" stroke="#6A7282" stroke-width="4" stroke-linecap="round" stroke-linejoin="round"/>
<path d="M36 22V20C36 18.9391 35.5786 17.9217 34.8284 17.1716C34.0783 16.4214 33.0609 16 32 16C30.9391 16 29.9217 16.4214 29.1716 17.1716C28.4214 17.9217 28 18.9391 28 20" stroke="#6A7282" stroke-width="4" stroke-linecap="round" stroke-linejoin="round"/>
<path d="M28 20V18C28 16.9391 27.5786 15.9217 26.8284 15.1716C26.0783 14.4214 25.0609 14 24 14C22.9391 14 21.9217 14.4214 21.1716 15.1716C20.4214 15.9217 20 16.9391 20 18V20" stroke="#6A7282" stroke-width="4" stroke-linecap="round" stroke-linejoin="round"/>
<path d="M20 19V8C20 6.93913 19.5786 5.92172 18.8284 5.17157C18.0783 4.42143 17.0609 4 16 4C14.9391 4 13.9217 4.42143 13.1716 5.17157C12.4214 5.92172 12 6.93913 12 8V28" stroke="#6A7282" stroke-width="4" stroke-linecap="round" stroke-linejoin="round"/>
<path d="M36 22C36 20.9391 36.4214 19.9217 37.1715 19.1716C37.9217 18.4214 38.9391 18 40 18C41.0608 18 42.0782 18.4214 42.8284 19.1716C43.5785 19.9217 44 20.9391 44 22V28C44 32.2435 42.3143 36.3131 39.3137 39.3137C36.3131 42.3143 32.2434 44 28 44H24C18.4 44 15 42.28 12.02 39.32L4.81996 32.12C4.13183 31.3579 3.76314 30.3603 3.79021 29.3339C3.81728 28.3074 4.23806 27.3307 4.9654 26.6059C5.69275 25.8811 6.67096 25.4638 7.69751 25.4404C8.72405 25.417 9.72029 25.7892 10.48 26.48L14 30" stroke="#6A7282" stroke-width="4" stroke-linecap="round" stroke-linejoin="round"/>
</svg>
